<?xml version="1.0" encoding="UTF-8" standalone="no"?>
<svg
   width="120"
   height="60"
   version="1.1"
   id="svg5"
   sodipodi:docname="CloneTubeLogo.svg"
   inkscape:version="1.4 (86a8ad7, 2024-10-11)"
   xmlns:inkscape="http://www.inkscape.org/namespaces/inkscape"
   xmlns:sodipodi="http://sodipodi.sourceforge.net/DTD/sodipodi-0.dtd"
   xmlns="http://www.w3.org/2000/svg"
   xmlns:svg="http://www.w3.org/2000/svg">
  <sodipodi:namedview
     id="namedview5"
     pagecolor="#ffffff"
     bordercolor="#000000"
     borderopacity="0.25"
     inkscape:showpageshadow="2"
     inkscape:pageopacity="0.0"
     inkscape:pagecheckerboard="0"
     inkscape:deskcolor="#d1d1d1"
     inkscape:zoom="7.125"
     inkscape:cx="76.070175"
     inkscape:cy="32.77193"
     inkscape:window-width="1920"
     inkscape:window-height="1057"
     inkscape:window-x="1072"
     inkscape:window-y="-8"
     inkscape:window-maximized="1"
     inkscape:current-layer="svg5" />
  <defs
     id="defs5">
    <path
       id="B"
       d="M311.5 33.4v68.3h-12l-1.3-8.4h-.3c-3.3 6.3-8.2 9.5-14.7 9.5-4.5 0-7.9-1.5-10-4.5-2.2-3-3.2-7.6-3.2-13.9v-51h15.4v50.1c0 3 .3 5.2 1 6.5s1.8 1.9 3.3 1.9c1.3 0 2.6-.4 3.8-1.2s2.1-1.9 2.7-3.1V33.4z" />
  </defs>
  <g
     id="g7"
     inkscape:export-filename="Logo.png"
     inkscape:export-xdpi="96"
     inkscape:export-ydpi="96">
    <g
       transform="matrix(.223746 0 0 .223746 4.958506 17.693975)"
       id="g5">
      <g
         id="g6"
         transform="translate(-19.445609,-1.2545554)">
        <path
           d="M 154.3,17.5 C 152.5,10.8 147.2,5.5 140.5,3.7 128.4,0.4 79.7,0.4 79.7,0.4 79.7,0.4 31,0.5 18.9,3.8 12.2,5.6 6.9,10.9 5.1,17.6 1.9,29.7 1.9,55 1.9,55 c 0,0 0,25.3 3.3,37.5 1.8,6.7 7.1,12 13.8,13.8 12.1,3.3 60.8,3.3 60.8,3.3 0,0 48.7,0 60.8,-3.3 6.7,-1.8 12,-7.1 13.8,-13.8 3.3,-12.1 3.3,-37.5 3.3,-37.5 0,0 -0.1,-25.3 -3.4,-37.5 z"
           fill="#ff0000"
           id="path1" />
        <path
           d="M 104.6,55 64.2,31.6 v 46.8 z"
           fill="#ffffff"
           id="path2" />
      </g>
    </g>
    <text
       xml:space="preserve"
       style="font-weight:500;font-size:21.3333px;line-height:0px;font-family:'YouTube Sans';-inkscape-font-specification:'YouTube Sans Medium';text-align:start;writing-mode:lr-tb;direction:ltr;text-anchor:start;fill:#282828;fill-opacity:1"
       x="36.140347"
       y="37.754387"
       id="text5"><tspan
         sodipodi:role="line"
         id="tspan5"
         x="36.140347"
         y="37.754387"
         style="font-size:21.3333px;line-height:0px;fill:#282828;fill-opacity:1"
         dx="0 -1.2631578 -0.70175439 -1.122807 -1.122807 -3.7894726 -4.210525 -1.5438595 -0.70175439">CloneTube</tspan></text>
  </g>
</svg>
